<svg width="35" height="32" viewBox="0 0 35 32" fill="none" xmlns="http://www.w3.org/2000/svg">
<path d="M10.4042 1.84973L16.8192 5.19745L10.3096 8.40128L10.4042 1.84973Z" fill="#630673"/>
<path d="M17.2612 5.50823L23.6761 8.85594L17.1665 12.0598L17.2612 5.50823Z" fill="#630673"/>
<path d="M10.4042 8.5647L16.8192 11.9124L10.3096 15.1162L10.4042 8.5647Z" fill="#FAC921"/>
<path d="M10.4042 15.5575L16.8192 18.9052L10.3096 22.1091L10.4042 15.5575Z" fill="#FAC921"/>
<path d="M3.7583 11.9916L10.1733 15.3394L3.66368 18.5432L3.7583 11.9916Z" fill="#FAC921"/>
<path d="M24.1708 8.98148L30.5858 12.3292L24.0762 15.533L24.1708 8.98148Z" fill="#630673"/>
<path d="M17.2612 19.1697L23.6761 22.5174L17.1665 25.7213L17.2612 19.1697Z" fill="#FAC921"/>
<path d="M24.1708 15.8354L30.5858 19.1831L24.0762 22.3869L24.1708 15.8354Z" fill="#630673"/>
<path d="M23.8885 15.8791L23.7779 22.4304L17.3711 19.0707L23.8885 15.8791Z" fill="#AEA8A8"/>
<path d="M23.8885 15.8791L23.7779 22.4304L17.3711 19.0707L23.8885 15.8791Z" fill="#904FA0"/>
<path d="M30.8509 12.4521L30.7403 19.0035L24.3335 15.6437L30.8509 12.4521Z" fill="#AEA8A8"/>
<path d="M30.8509 12.4521L30.7403 19.0035L24.3335 15.6437L30.8509 12.4521Z" fill="#904FA0"/>
<path d="M23.8885 22.594L23.7779 29.1454L17.3711 25.7857L23.8885 22.594Z" fill="#AEA8A8"/>
<path d="M23.8885 22.594L23.7779 29.1454L17.3711 25.7857L23.8885 22.594Z" fill="#FFE488"/>
<path d="M17.0843 5.27407L16.9737 11.8254L10.567 8.46567L17.0843 5.27407Z" fill="#AEA8A8"/>
<path d="M17.0843 5.27407L16.9737 11.8254L10.567 8.46567L17.0843 5.27407Z" fill="#904FA0"/>
<path d="M10.2274 8.56209L10.1168 15.1134L3.71004 11.7537L10.2274 8.56209Z" fill="#AEA8A8"/>
<path d="M10.2274 8.56209L10.1168 15.1134L3.71004 11.7537L10.2274 8.56209Z" fill="#FFE488"/>
<path d="M23.8885 8.88625L23.7779 15.4376L17.3711 12.0779L23.8885 8.88625Z" fill="#AEA8A8"/>
<path d="M23.8885 8.88625L23.7779 15.4376L17.3711 12.0779L23.8885 8.88625Z" fill="#904FA0"/>
<path d="M10.2274 15.5086L10.1168 22.0599L3.71004 18.7002L10.2274 15.5086Z" fill="#AEA8A8"/>
<path d="M10.2274 15.5086L10.1168 22.0599L3.71004 18.7002L10.2274 15.5086Z" fill="#FFE488"/>
<path d="M17.0843 18.9355L16.9737 25.4869L10.567 22.1271L17.0843 18.9355Z" fill="#AEA8A8"/>
<path d="M17.0843 18.9355L16.9737 25.4869L10.567 22.1271L17.0843 18.9355Z" fill="#FFE488"/>
</svg>
