<svg width="53" height="45" viewBox="0 0 53 45" fill="none" xmlns="http://www.w3.org/2000/svg">
<path d="M15.9603 2.62469L25.8009 7.37497L15.8151 11.9211L15.9603 2.62469Z" fill="#630673"/>
<path d="M26.4789 7.81596L36.3195 12.5662L26.3337 17.1123L26.4789 7.81596Z" fill="#630673"/>
<path d="M15.9603 12.153L25.8009 16.9032L15.8151 21.4494L15.9603 12.153Z" fill="#FAC921"/>
<path d="M15.9603 22.0755L25.8009 26.8258L15.8151 31.3719L15.9603 22.0755Z" fill="#FAC921"/>
<path d="M5.76529 17.0157L15.6059 21.766L5.62014 26.3121L5.76529 17.0157Z" fill="#FAC921"/>
<path d="M37.0784 12.7444L46.919 17.4947L36.9333 22.0408L37.0784 12.7444Z" fill="#630673"/>
<path d="M26.4789 27.2011L36.3195 31.9513L26.3337 36.4975L26.4789 27.2011Z" fill="#FAC921"/>
<path d="M37.0784 22.4698L46.919 27.2201L36.9333 31.7662L37.0784 22.4698Z" fill="#630673"/>
<path d="M36.6453 22.5318L36.4757 31.8279L26.6476 27.0606L36.6453 22.5318Z" fill="#AEA8A8"/>
<path d="M36.6453 22.5318L36.4757 31.8279L26.6476 27.0606L36.6453 22.5318Z" fill="#904FA0"/>
<path d="M47.3257 17.6691L47.1561 26.9652L37.328 22.1979L47.3257 17.6691Z" fill="#AEA8A8"/>
<path d="M47.3257 17.6691L47.1561 26.9652L37.328 22.1979L47.3257 17.6691Z" fill="#904FA0"/>
<path d="M36.6453 32.0601L36.4757 41.3562L26.6476 36.5888L36.6453 32.0601Z" fill="#AEA8A8"/>
<path d="M36.6453 32.0601L36.4757 41.3562L26.6476 36.5888L36.6453 32.0601Z" fill="#FFE488"/>
<path d="M26.2076 7.48371L26.038 16.7798L16.2099 12.0125L26.2076 7.48371Z" fill="#AEA8A8"/>
<path d="M26.2076 7.48371L26.038 16.7798L16.2099 12.0125L26.2076 7.48371Z" fill="#904FA0"/>
<path d="M15.689 12.1493L15.5194 21.4454L5.69126 16.678L15.689 12.1493Z" fill="#AEA8A8"/>
<path d="M15.689 12.1493L15.5194 21.4454L5.69126 16.678L15.689 12.1493Z" fill="#FFE488"/>
<path d="M36.6453 12.6093L36.4757 21.9054L26.6476 17.138L36.6453 12.6093Z" fill="#AEA8A8"/>
<path d="M36.6453 12.6093L36.4757 21.9054L26.6476 17.138L36.6453 12.6093Z" fill="#904FA0"/>
<path d="M15.689 22.0061L15.5194 31.3022L5.69126 26.5349L15.689 22.0061Z" fill="#AEA8A8"/>
<path d="M15.689 22.0061L15.5194 31.3022L5.69126 26.5349L15.689 22.0061Z" fill="#FFE488"/>
<path d="M26.2076 26.8688L26.038 36.1649L16.2099 31.3976L26.2076 26.8688Z" fill="#AEA8A8"/>
<path d="M26.2076 26.8688L26.038 36.1649L16.2099 31.3976L26.2076 26.8688Z" fill="#FFE488"/>
</svg>
